<svg xmlns="http://www.w3.org/2000/svg" viewBox="0 0 32 32" width="32" height="32">
  <rect width="32" height="32" rx="7" fill="#0c0714" stroke="#861f41" stroke-width="1.5" />
  <path d="M16 5C9.93 5 5 9.93 5 16s4.93 11 11 11 11-4.93 11-11S22.07 5 16 5zm0 18c-3.87 0-7-3.13-7-7s3.13-7 7-7 7 3.13 7 7c0 1.96-1.54 3.5-3.5 3.5S16 20.46 16 19.5c0-.96.79-1.5 1.75-1.5.96 0 1.75-.79 1.75-1.75 0-1.93-1.57-3.5-3.5-3.5S12.5 14.32 12.5 16.25c0 .96.79 1.75 1.75 1.75.96 0 1.75.79 1.75 1.75 0 1.96-1.54 3.25-3.5 3.25z" fill="url(#vortexGrad)" />
  <defs>
    <radialGradient id="vortexGrad" cx="50%" cy="50%" r="50%">
      <stop offset="0%" stop-color="#ff3366" />
      <stop offset="60%" stop-color="#9900ef" />
      <stop offset="100%" stop-color="#2a004f" />
    </radialGradient>
  </defs>
</svg>